<svg width="1440" height="1024" viewBox="0 0 1440 1024" fill="none" xmlns="http://www.w3.org/2000/svg">
<path d="M885.045 662.853L343.301 369.323L98.7311 766.364L640.475 1059.89L885.045 662.853Z" stroke="black" stroke-opacity="0.03" stroke-width="139.92"/>
<path d="M923.244 729.955L401.346 315.717L60.5328 699.262L582.431 1113.5L923.244 729.955Z" stroke="#110500" stroke-opacity="0.03" stroke-width="152.64"/>
<path d="M947.652 808.023L474.801 271.537L36.1218 621.194L508.973 1157.68L947.652 808.023Z" stroke="#220900" stroke-opacity="0.03" stroke-width="165.36"/>
<path d="M955.373 894.358L561.875 240.173L28.4011 534.858L421.899 1189.04L955.373 894.358Z" stroke="#330E00" stroke-opacity="0.03" stroke-width="178.08"/>
<path d="M944.101 985.622L660.07 224.642L39.6746 443.595L323.705 1204.58L944.101 985.622Z" stroke="#441200" stroke-opacity="0.03" stroke-width="190.8"/>
<path d="M912.254 1077.94L766.357 227.438L71.5209 351.278L217.418 1201.78L912.254 1077.94Z" stroke="#551700" stroke-opacity="0.03" stroke-width="203.52"/>
<path d="M841.651 1166.91L859.088 250.395L142.125 262.31L124.688 1178.82L841.651 1166.91Z" stroke="#661B00" stroke-opacity="0.03" stroke-width="216.24"/>
<path d="M769.511 1262.68L964.801 282.978L214.265 166.542L18.9758 1146.24L769.511 1262.68Z" stroke="#772000" stroke-opacity="0.03" stroke-width="228.96"/>
<path d="M676.265 1335.23L1064.69 348.809L307.511 93.984L-80.9153 1080.41L676.265 1335.23Z" stroke="#882400" stroke-opacity="0.03" stroke-width="241.68"/>
<path d="M564.405 1392.37L1154.01 434.979L419.369 36.8431L-170.236 994.238L564.405 1392.37Z" stroke="#992900" stroke-opacity="0.03" stroke-width="254.4"/>
<path d="M437.057 1430.34L1228.12 539.858L546.718 -1.12216L-244.348 889.359L437.057 1430.34Z" stroke="#AA2D00" stroke-opacity="0.03" stroke-width="267.12"/>
<path d="M298.07 1445.91L1282.71 660.854L685.704 -16.6931L-298.932 768.363L298.07 1445.91Z" stroke="#BB3200" stroke-opacity="0.03" stroke-width="279.84"/>
<path d="M151.952 1436.57L1313.94 794.46L831.824 -7.35084L-330.167 634.757L151.952 1436.57Z" stroke="#CC3600" stroke-opacity="0.03" stroke-width="292.56"/>
<path d="M3.71269 1400.63L1318.71 936.318L980.064 28.5846L-334.931 492.9L3.71269 1400.63Z" stroke="#DD3B00" stroke-opacity="0.03" stroke-width="305.28"/>
<path d="M-141.333 1337.37L1294.72 1081.26L1125.11 91.843L-310.944 347.961L-141.333 1337.37Z" stroke="#EE3F00" stroke-opacity="0.03" stroke-width="318"/>
<path d="M-256.912 1247.09L1220.41 1223.11L1240.69 182.128L-236.638 206.103L-256.912 1247.09Z" stroke="#FF4400" stroke-opacity="0.03" stroke-width="330.72"/>
</svg>
